HIERARCHY
ROOT Hips
{
	OFFSET 0.000000 0.000000 0.000000
	CHANNELS 6 Xposition Yposition Zposition Zrotation Yrotation Xrotation 
	JOINT LHipJoint
	{
		OFFSET 0.000000 0.000000 0.000000
		CHANNELS 3 Zrotation Yrotation Xrotation
		JOINT LeftUpLeg
		{
			OFFSET 1.363060 -1.794630 0.839290
			CHANNELS 3 Zrotation Yrotation Xrotation
			JOINT LeftLeg
			{
				OFFSET 2.448110 -6.726130 0.000000
				CHANNELS 3 Zrotation Yrotation Xrotation
				JOINT LeftFoot
				{
					OFFSET 2.562200 -7.039590 0.000000
					CHANNELS 3 Zrotation Yrotation Xrotation
					JOINT LeftToeBase
					{
						OFFSET 0.157640 -0.433110 2.322550
						CHANNELS 3 Zrotation Yrotation Xrotation
						End Site
						{
							OFFSET 0.000000 0.000000 0.000000
						}
					}
				}
			}
		}
	}
	JOINT RHipJoint
	{
		OFFSET 0.000000 0.000000 0.000000
		CHANNELS 3 Zrotation Yrotation Xrotation
		JOINT RightUpLeg
		{
			OFFSET -1.305520 -1.794630 0.839290
			CHANNELS 3 Zrotation Yrotation Xrotation
			JOINT RightLeg
			{
				OFFSET -2.542530 -6.985550 0.000000
				CHANNELS 3 Zrotation Yrotation Xrotation
				JOINT RightFoot
				{
					OFFSET -2.568260 -7.056230 0.000000
					CHANNELS 3 Zrotation Yrotation Xrotation
					JOINT RightToeBase
					{
						OFFSET -0.164730 -0.452590 2.363150
						CHANNELS 3 Zrotation Yrotation Xrotation
						End Site
						{
							OFFSET 0.000000 0.000000 0.000000
						}
					}
				}
			}
		}
	}
}
MOTION
Frames: 30
Frame Time: 0.008333
2.134503 16.275405 0.009454 65.096649 84.251556 116.814939 -9.563531 -2.972409 -0.975140 -10.407720 -10.592213 -74.391613 -0.496256 3.561433 59.822049 4.389547 16.600570 -21.502691 -3.267700 -0.000000 -17.771800 6.625234 0.500706 -0.587586 12.100191 6.089018 -69.802103 2.817560 -3.180928 43.973662 -3.595574 -6.684414 -25.445600 2.187600 0.000000 -2.434900
2.269017 16.305272 0.022610 63.099098 84.203038 114.739143 -9.410640 -2.917947 -0.736618 -10.186270 -11.161490 -75.507198 -0.618067 3.480211 58.307362 4.353551 16.010570 -21.482824 -3.123400 0.000000 -18.455300 6.625168 0.542440 -0.779507 12.177209 5.836982 -68.668266 2.868321 -3.076715 43.369739 -3.551318 -6.555016 -25.439106 2.176900 0.000000 -3.114800
2.405431 16.333157 0.034950 61.052586 84.163767 112.566708 -9.263799 -2.843735 -0.495208 -9.983493 -11.673323 -76.524546 -0.756488 3.386318 56.662076 4.308656 15.386589 -21.454524 -2.975700 0.000000 -19.127600 6.629432 0.584894 -0.977513 12.264331 5.576512 -67.492349 2.913441 -2.977781 42.817214 -3.507348 -6.431203 -25.443347 2.169800 -0.000000 -3.730500
2.543884 16.358843 0.046545 59.015427 84.135201 110.358964 -9.122709 -2.751233 -0.250270 -9.808417 -12.129509 -77.448933 -0.911135 3.279646 54.894428 4.253799 14.730206 -21.405453 -2.821900 0.000000 -19.805000 6.639862 0.626907 -1.180054 12.360756 5.305473 -66.282497 2.952661 -2.885746 42.321571 -3.463990 -6.315306 -25.455346 2.165700 0.000000 -4.304900
2.684490 16.382228 0.057425 57.044941 84.116696 108.175460 -8.987072 -2.641623 -0.001629 -9.674152 -12.533093 -78.282643 -1.082766 3.159899 53.010070 4.188370 14.043324 -21.330320 -2.661900 -0.000000 -20.423800 6.658383 0.667606 -1.386604 12.465033 5.017435 -65.048129 2.985976 -2.802895 41.890408 -3.420298 -6.205941 -25.469209 2.163100 0.000000 -4.872301
2.827348 16.403152 0.067625 55.176689 84.109320 106.054865 -8.857526 -2.516454 0.250613 -9.593335 -12.885603 -79.028928 -1.271503 3.026969 51.013565 4.111068 13.330416 -21.208006 -2.491899 0.000000 -21.065900 6.686251 0.705800 -1.595820 12.574444 4.710594 -63.800156 3.012332 -2.731282 41.532651 -3.375224 -6.104323 -25.471616 2.159600 -0.000001 -5.537500
2.972555 16.421601 0.077181 53.424462 84.111460 104.012769 -8.734549 -2.376669 0.505328 -9.581979 -13.189114 -79.682619 -1.478947 2.879924 48.904452 4.021832 12.597594 -21.032355 -2.312900 0.000000 -21.694200 6.724580 0.741110 -1.808249 12.687031 4.377951 -62.547770 3.031909 -2.673150 41.257216 -3.326570 -6.004915 -25.454150 2.152300 -0.000000 -6.335700
3.120182 16.437564 0.086081 51.768551 84.122652 102.031147 -8.619014 -2.223569 0.760998 -9.653439 -13.443195 -80.238094 -1.706181 2.717627 46.680713 3.920804 11.854370 -20.790875 -2.125100 -0.000000 -22.412500 6.774222 0.773104 -2.023925 12.800265 4.017144 -61.298547 3.043708 -2.630182 41.071842 -3.271386 -5.904114 -25.395561 2.137000 -0.000000 -7.428799
3.270247 16.451199 0.094250 50.170379 84.140540 100.070012 -8.510956 -2.058629 1.015044 -9.820305 -13.647839 -80.680556 -1.954956 2.537304 44.335324 3.809927 11.112688 -20.488743 -1.933400 -0.000000 -23.197100 6.835475 0.802382 -2.245152 12.913354 3.620555 -60.054543 3.049112 -2.603433 40.981166 -3.207193 -5.790751 -25.296540 2.111700 -0.000000 -8.760000
3.422797 16.462529 0.101582 48.546946 84.164699 98.046911 -8.410746 -1.884243 1.264656 -10.088297 -13.798530 -80.998519 -2.225580 2.336073 41.863417 3.690948 10.385325 -20.125355 -1.740899 -0.000000 -24.138800 6.908237 0.829070 -2.472694 13.026249 3.188877 -58.815659 3.048139 -2.592632 40.985545 -3.131676 -5.658383 -25.145776 2.073500 0.000000 -10.384300
3.577832 16.471747 0.107974 46.801489 84.193253 95.862560 -8.317570 -1.703687 1.506194 -10.458545 -13.890290 -81.175984 -2.517554 2.109613 39.259061 3.566816 9.685774 -19.712390 -1.553100 -0.000000 -25.247400 6.992285 0.854007 -2.708485 13.139759 2.720352 -57.575499 3.042171 -2.596478 41.079623 -3.043191 -5.497026 -24.945737 2.021500 -0.000000 -12.234301
3.735460 16.478716 0.113273 44.795048 84.227734 93.380770 -8.231604 -1.521274 1.736884 -10.923316 -13.911351 -81.211717 -2.828436 1.855082 36.524686 3.438224 9.020502 -19.250331 -1.371100 0.000000 -26.639800 7.087361 0.875974 -2.950445 13.257767 2.225884 -56.330300 3.029325 -2.612468 41.250985 -2.939933 -5.309861 -24.661129 1.951100 0.000000 -14.592800
3.895655 16.483669 0.117310 42.418716 84.265125 90.488683 -8.150275 -1.342424 1.952336 -11.471226 -13.854402 -81.092344 -3.154088 1.567315 33.661227 3.308178 8.398828 -18.759790 -1.200399 0.000000 -28.213500 7.193001 0.896151 -3.200504 13.383213 1.703288 -55.064905 3.013428 -2.637176 41.485447 -2.823725 -5.084969 -24.331505 1.867900 0.000000 -17.066500
4.058516 16.486480 0.119934 39.541839 84.304653 87.057113 -8.071940 -1.173091 2.149218 -12.084058 -13.707526 -80.823107 -3.488111 1.244218 30.682634 3.176405 7.819679 -18.246682 -1.041400 0.000000 -29.946600 7.309412 0.913369 -3.455776 13.520545 1.162420 -53.769757 2.994192 -2.666551 41.761880 -2.695657 -4.826375 -23.947228 1.771801 0.000000 -19.734000
4.224147 16.487045 0.121052 36.056336 84.342904 82.979694 -7.994031 -1.019378 2.324198 -12.740178 -13.460501 -80.415993 -3.822374 0.885738 27.611915 3.041633 7.277417 -17.715452 -0.894101 -0.000000 -31.753300 7.437032 0.926539 -3.713059 13.674482 0.611940 -52.434873 2.973072 -2.696296 42.060774 -2.559302 -4.536163 -23.530594 1.668000 0.000000 -22.386100
4.392720 16.485242 0.120623 31.889983 84.373683 78.187217 -7.913532 -0.886913 2.474469 -13.417268 -13.106603 -79.890198 -4.147722 0.494909 24.482302 2.901274 6.761404 -17.165813 -0.757100 -0.000000 -33.522000 7.577891 0.933441 -3.967505 13.847654 0.059433 -51.052929 2.949492 -2.722650 42.356514 -2.416817 -4.224154 -23.070239 1.557300 -0.000000 -25.151500
4.564335 16.480876 0.118692 27.026788 84.388706 72.668378 -7.827283 -0.780602 2.598159 -14.093525 -12.643862 -79.273607 -4.454974 0.078500 21.337018 2.751805 6.258152 -16.590528 -0.628100 0.000000 -35.157200 7.733795 0.931119 -4.213671 14.042132 -0.488172 -49.620886 2.924605 -2.742705 42.630836 -2.272656 -3.898240 -22.587512 1.444801 0.000000 -27.863300
4.739099 16.473831 0.115318 21.504038 84.377661 66.462024 -7.732201 -0.704330 2.691057 -14.755040 -12.070648 -78.598137 -4.737120 -0.350587 18.243285 2.588895 5.745932 -15.991756 -0.506699 0.000000 -36.529300 7.906636 0.915516 -4.446798 14.258574 -1.027773 -48.134893 2.900055 -2.754931 42.867795 -2.130588 -3.564948 -22.103862 1.334900 0.000000 -30.365600
4.917455 16.463811 0.110879 15.576212 84.330526 59.844093 -7.628900 -0.662126 2.764675 -15.369771 -11.420896 -77.894602 -4.984773 -0.789417 15.203655 2.413346 5.240506 -15.320287 -0.385401 -0.000000 -37.808400 8.096236 0.879764 -4.657078 14.487252 -1.554139 -46.622765 2.873130 -2.760775 43.048711 -1.992537 -3.249617 -21.571330 1.225300 0.000001 -33.145600
5.099239 16.450883 0.105402 9.375016 84.239146 52.940088 -7.518909 -0.655093 2.809903 -15.942258 -10.689931 -77.198783 -5.198295 -1.214659 12.329247 2.221941 4.707304 -14.614893 -0.270900 0.000001 -38.798500 8.299152 0.818821 -4.843994 14.728625 -2.071044 -45.074436 2.848546 -2.761440 43.169823 -1.861777 -2.948606 -21.038636 1.122000 0.000000 -35.803900
5.284652 16.434971 0.099341 3.251224 84.098130 46.115344 -7.409635 -0.684298 2.836775 -16.448135 -9.915432 -76.531336 -5.372792 -1.619911 9.637365 2.021729 4.171379 -13.863020 -0.162300 -0.000000 -39.635399 8.507031 0.728805 -5.004039 14.968629 -2.580763 -43.513998 2.827833 -2.760557 43.232553 -1.739777 -2.667620 -20.509178 1.025500 -0.000000 -38.333900
5.473738 16.416162 0.092791 -2.600360 83.906518 39.570946 -7.309909 -0.745474 2.848441 -16.879683 -9.113086 -75.921041 -5.510355 -1.990748 7.189155 1.817785 3.630269 -13.099325 -0.064800 0.000000 -40.311599 8.710367 0.608480 -5.136831 15.202887 -3.082521 -41.950974 2.811003 -2.759915 43.236403 -1.626067 -2.411619 -19.965097 0.934700 0.000000 -40.906600
5.666511 16.394607 0.086120 -7.952489 83.663197 33.543162 -7.228149 -0.833641 2.855201 -17.206710 -8.314833 -75.372554 -5.607168 -2.323490 4.994151 1.623827 3.123728 -12.351414 0.018900 -0.000000 -40.896300 8.899632 0.462839 -5.245743 15.418066 -3.579753 -40.400081 2.798631 -2.760868 43.194720 -1.519579 -2.172277 -19.416793 0.849300 0.000000 -43.391400
5.862975 16.370537 0.079440 -12.731308 83.369860 28.110054 -7.168538 -0.940607 2.863537 -17.407768 -7.536716 -74.890907 -5.663143 -2.612662 3.077313 1.451130 2.675465 -11.670029 0.085200 0.000001 -41.385501 9.070006 0.298565 -5.335159 15.608518 -4.072737 -38.867858 2.789047 -2.763145 43.118260 -1.417687 -1.941722 -18.852172 0.767100 -0.000001 -45.826900
6.063057 16.344175 0.072867 -16.915057 83.028776 23.296500 -7.131372 -1.058606 2.879863 -17.458707 -6.793460 -74.468918 -5.676967 -2.857143 1.446917 1.311534 2.317382 -11.104342 0.132900 -0.000000 -41.772000 9.220905 0.123568 -5.410516 15.767430 -4.563845 -37.359643 2.780551 -2.766436 43.021291 -1.317113 -1.705910 -18.265037 0.686000 -0.000000 -48.162000
6.266728 16.315773 0.066298 -20.586556 82.645053 19.016031 -7.113366 -1.178897 2.901627 -17.373684 -6.076923 -74.111667 -5.657827 -3.050359 0.147725 1.206630 2.033674 -10.715008 0.159300 0.000001 -42.010400 9.355477 -0.058149 -5.475468 15.895953 -5.054327 -35.873019 2.770501 -2.770784 42.910196 -1.214074 -1.455661 -17.624589 0.602900 -0.000000 -50.555300
6.473988 16.285540 0.059853 -23.735331 82.221508 15.280806 -7.111995 -1.298225 2.934689 -17.126547 -5.403682 -73.788513 -5.600170 -3.199237 -0.851381 1.148425 1.876251 -10.520674 0.167900 -0.000000 -42.081300 9.477243 -0.239626 -5.535384 15.981259 -5.550707 -34.414444 2.757408 -2.777128 42.801763 -1.104668 -1.169726 -16.926031 0.516200 0.000000 -52.883501
6.684752 16.253640 0.053353 -26.454935 81.764121 11.990918 -7.123570 -1.410631 2.971814 -16.756094 -4.758142 -73.503801 -5.516592 -3.297855 -1.509615 1.131775 1.813989 -10.547931 0.157600 -0.000000 -41.937800 9.590608 -0.420322 -5.591818 16.022739 -6.056101 -32.980621 2.739130 -2.786533 42.699906 -0.985731 -0.837842 -16.136353 0.424500 0.000001 -55.306300
6.898915 16.220214 0.046767 -28.777572 81.278000 9.106521 -7.145599 -1.512770 3.005750 -16.297670 -4.130636 -73.248837 -5.415534 -3.343851 -1.813739 1.152696 1.834313 -10.787838 0.129199 0.000000 -41.561700 9.699229 -0.598319 -5.647451 16.009605 -6.577900 -31.568376 2.714649 -2.800374 42.613375 -0.854412 -0.440848 -15.242976 0.328500 0.000001 -57.791300
7.116848 16.185077 0.040056 -30.735465 80.768084 6.609768 -7.179261 -1.605260 3.048754 -15.709971 -3.550610 -73.003529 -5.285241 -3.346862 -1.827739 1.221691 2.013549 -11.174662 0.090199 0.000000 -40.967400 9.805681 -0.770513 -5.700095 15.935060 -7.109357 -30.199156 2.681161 -2.818981 42.547114 -0.710419 0.025438 -14.216636 0.231600 -0.000000 -60.478700
